<svg width="285" height="267" viewBox="0 0 285 267" fill="none" xmlns="http://www.w3.org/2000/svg">
<path d="M50.5418 105.299H0V263.752C0 265.409 1.34314 266.752 3 266.752H262.345C264.001 266.752 265.345 265.409 265.345 263.752V161.456H214.803V213.21C214.803 214.867 213.46 216.21 211.803 216.21H53.5418C51.885 216.21 50.5418 214.867 50.5418 213.21V105.299Z" fill="white"/>
<path d="M234.458 161.453H285V3.00002C285 1.34315 283.657 1.52588e-05 282 1.52588e-05L22.6554 1.52588e-05C20.9985 1.52588e-05 19.6554 1.34315 19.6554 3.00002V105.296H70.1972V53.5419C70.1972 51.885 71.5403 50.5419 73.1972 50.5419L231.458 50.5419C233.115 50.5419 234.458 51.885 234.458 53.5419V161.453Z" fill="white"/>
</svg>
