<svg width="285" height="267" viewBox="0 0 285 267" fill="none" xmlns="http://www.w3.org/2000/svg">
<path d="M50.5418 105.537H0V263.99C0 265.647 1.34314 266.99 3 266.99H262.345C264.001 266.99 265.345 265.647 265.345 263.99V161.695H214.803V213.448C214.803 215.105 213.46 216.448 211.803 216.448H53.5418C51.885 216.448 50.5418 215.105 50.5418 213.448V105.537Z" fill="#6ED97F"/>
<path d="M234.458 161.691H285V3.2383C285 1.58144 283.657 0.238297 282 0.238297L22.6554 0.238297C20.9985 0.238297 19.6554 1.58144 19.6554 3.2383V105.534H70.1972V53.7801C70.1972 52.1233 71.5403 50.7801 73.1972 50.7801L231.458 50.7801C233.115 50.7801 234.458 52.1233 234.458 53.7801V161.691Z" fill="#6ED97F"/>
</svg>
